<svg width="20" height="27" viewBox="0 0 20 27" fill="none" xmlns="http://www.w3.org/2000/svg">
<path fill-rule="evenodd" clip-rule="evenodd" d="M13.0254 5V8.92204H6.94348V5C6.94348 3.3643 8.3063 2 9.98442 2C11.6625 2 13.0254 3.3643 13.0254 5ZM4.94348 5C4.94348 2.23858 7.223 0 9.98442 0C12.7458 0 15.0254 2.23858 15.0254 5V8.92204V9.24172H17.3527C18.4203 9.24172 19.2997 10.0802 19.3505 11.1466L19.9665 24.0841C20.0208 25.2248 19.1107 26.1793 17.9688 26.1793H2.00005C0.858126 26.1793 -0.0520048 25.2248 0.00231083 24.0841L0.618385 11.1466C0.669165 10.0802 1.54854 9.24172 2.61612 9.24172H4.94348V8.92204V5ZM2.61612 11.2417H17.3527L17.9688 24.1793H2.00005L2.61612 11.2417Z" fill="#222"/>
</svg>
