<?xml version="1.0" encoding="utf-8"?>
<!-- Generator: Adobe Illustrator 24.0.1, SVG Export Plug-In . SVG Version: 6.00 Build 0)  -->
<svg version="1.1" id="Lager_1" xmlns="http://www.w3.org/2000/svg" xmlns:xlink="http://www.w3.org/1999/xlink" x="0px" y="0px"
	 viewBox="0 0 172 60" style="enable-background:new 0 0 172 60;" xml:space="preserve">
<style type="text/css">
	.st0{fill:#020203;}
	.st1{fill:#FFFFFF;}
</style>
<g>
	<path class="st0" d="M86.12,33.43c0,2.6-0.76,4.6-2.29,6c-1.53,1.4-3.72,2.1-6.58,2.1c-2,0-3.72-0.37-5.19-1.1
		c-1.46-0.73-2.39-1.97-2.39-1.97c-0.43-0.6-0.4-1.5,0.1-2.03l1.6-1.8c0.5-0.53,1.2-0.47,1.56,0.13c0,0,0.33,0.57,1.3,1.17
		c0.93,0.6,1.96,0.9,3.06,0.9c1.13,0,1.96-0.27,2.53-0.77c0.57-0.53,0.86-1.27,0.86-2.27c0-0.87-0.4-1.67-1.16-2.37
		c-0.76-0.7-2.13-1.6-4.09-2.67c-2.13-1.2-3.66-2.4-4.52-3.63c-0.86-1.23-1.33-2.67-1.33-4.33c0-2.33,0.76-4.2,2.29-5.57
		c1.53-1.37,3.59-2.07,6.22-2.07c1.6,0,2.99,0.3,4.19,0.9c1.2,0.6,2.16,1.67,2.16,1.67c0.47,0.53,0.47,1.43-0.03,1.97l-1.46,1.6
		c-0.5,0.53-1.23,0.5-1.66-0.1c0,0-0.13-0.2-0.9-0.63c-0.76-0.47-1.56-0.7-2.36-0.7c-0.93,0-1.7,0.23-2.23,0.73
		c-0.57,0.5-0.83,1.1-0.83,1.8c0,1.43,2.79,3.47,2.79,3.47c0.6,0.43,1.26,0.87,1.5,1c0.23,0.13,1.16,0.7,1.8,1.07
		c0,0,2.76,1.8,3.69,3.03C85.62,30.2,86.12,31.7,86.12,33.43z"/>
	<path class="st0" d="M94.4,39.63c0,0.73-0.6,1.33-1.33,1.33h-2.66c-0.73,0-1.33-0.6-1.33-1.33v-24.6c0-0.73,0.6-1.33,1.33-1.33
		h2.66c0.73,0,1.33,0.6,1.33,1.33V39.63z"/>
	<path class="st0" d="M121.8,39.63c0,0.73-0.6,1.33-1.33,1.33h-2.56c-0.73,0-1.66-0.5-2.06-1.1l-11.17-16.2
		c-0.4-0.6-0.76-0.5-0.76,0.23v15.73c0,0.73-0.6,1.33-1.33,1.33h-2.56c-0.73,0-1.33-0.6-1.33-1.33v-24.6c0-0.73,0.6-1.33,1.33-1.33
		h2.56c0.73,0,1.66,0.5,2.06,1.1l11.14,16.13c0.4,0.6,0.76,0.5,0.76-0.23V15.03c0-0.73,0.6-1.33,1.33-1.33h2.56
		c0.73,0,1.33,0.6,1.33,1.33v24.6H121.8z"/>
	<path class="st0" d="M145.74,29.03c0,0.73-0.07,1.9-0.17,2.63c0,0-0.66,5.07-2.39,6.97c-1.7,1.93-4.16,2.87-7.35,2.87
		c-3.16,0-5.59-1-7.32-2.97c-1.73-1.97-2.43-6.9-2.43-6.9c-0.1-0.73-0.17-1.9-0.17-2.63V15c0-0.73,0.6-1.33,1.33-1.33h2.83
		c0.73,0,1.33,0.6,1.33,1.33v14.93c0,0.73,0.07,1.9,0.17,2.63c0,0,0.23,1.77,0.96,2.67c0.76,0.9,1.86,1.37,3.29,1.37
		c1.5,0,2.63-0.43,3.36-1.33c0.73-0.87,0.93-2.7,0.93-2.7c0.1-0.73,0.17-1.9,0.17-2.63v-14.9c0-0.73,0.6-1.33,1.33-1.33h2.83
		c0.73,0,1.33,0.6,1.33,1.33v14H145.74z"/>
	<path class="st0" d="M165.4,33.43c0,2.6-0.76,4.6-2.29,6c-1.53,1.4-3.73,2.1-6.58,2.1c-2,0-3.73-0.37-5.19-1.1
		c-1.46-0.73-2.39-1.97-2.39-1.97c-0.43-0.6-0.4-1.5,0.1-2.03l1.6-1.8c0.5-0.53,1.2-0.47,1.56,0.13c0,0,0.33,0.57,1.3,1.17
		c0.93,0.6,1.96,0.9,3.06,0.9c1.13,0,1.96-0.27,2.53-0.77c0.57-0.53,0.87-1.27,0.87-2.27c0-0.87-0.4-1.67-1.16-2.37
		c-0.76-0.7-2.13-1.6-4.09-2.67c-2.13-1.2-3.66-2.4-4.52-3.63c-0.86-1.23-1.33-2.67-1.33-4.33c0-2.33,0.76-4.2,2.29-5.57
		c1.53-1.37,3.59-2.07,6.22-2.07c1.6,0,2.99,0.3,4.19,0.9c1.2,0.6,2.16,1.67,2.16,1.67c0.47,0.53,0.47,1.43-0.03,1.97l-1.46,1.6
		c-0.5,0.53-1.23,0.5-1.66-0.1c0,0-0.13-0.2-0.9-0.63c-0.76-0.47-1.56-0.7-2.36-0.7c-0.93,0-1.7,0.23-2.23,0.73
		c-0.56,0.5-0.83,1.1-0.83,1.8c0,1.43,2.79,3.47,2.79,3.47c0.6,0.43,1.26,0.87,1.5,1c0.23,0.13,1.16,0.7,1.8,1.07
		c0,0,2.76,1.8,3.69,3.03C164.93,30.2,165.4,31.7,165.4,33.43z"/>
	<path class="st1" d="M29.65,59.1c16.27,0,29.46-13.22,29.46-29.53c0-16.31-13.19-29.53-29.46-29.53S0.18,13.26,0.18,29.57
		C0.18,45.88,13.37,59.1,29.65,59.1z"/>
	<path class="st0" d="M47.51,21.93V37.2c0,0.53-0.43,0.97-0.96,0.97s-0.96-0.43-0.96-0.97V21.93c0-1.8-1.46-3.27-3.26-3.27
		s-3.26,1.47-3.26,3.27V37.2c0,2.87-2.33,5.2-5.19,5.2c-2.86,0-5.19-2.33-5.19-5.2V21.93c0-1.8-1.46-3.27-3.26-3.27
		c-1.8,0-3.26,1.47-3.26,3.27V37.2c0,2.87-2.33,5.2-5.19,5.2s-5.19-2.33-5.19-5.2V21.93c0-0.53,0.43-0.97,0.96-0.97
		c0.53,0,0.96,0.43,0.96,0.97V37.2c0,1.8,1.46,3.27,3.26,3.27c1.8,0,3.26-1.47,3.26-3.27V21.93c0-2.87,2.33-5.2,5.19-5.2
		s5.19,2.33,5.19,5.2V37.2c0,1.8,1.46,3.27,3.26,3.27c1.8,0,3.26-1.47,3.26-3.27V21.93c0-2.87,2.33-5.2,5.19-5.2
		S47.51,19.07,47.51,21.93z"/>
	<path class="st0" d="M73.76,51.8c0,0.57-0.21,1.01-0.62,1.32c-0.41,0.32-0.97,0.47-1.67,0.47c-0.76,0-1.35-0.1-1.76-0.29v-0.72
		c0.26,0.11,0.55,0.2,0.86,0.26c0.31,0.06,0.62,0.1,0.92,0.1c0.5,0,0.87-0.09,1.12-0.28c0.25-0.19,0.38-0.45,0.38-0.79
		c0-0.22-0.05-0.4-0.14-0.54c-0.09-0.14-0.24-0.28-0.45-0.4c-0.21-0.12-0.53-0.26-0.95-0.41c-0.6-0.21-1.03-0.47-1.28-0.76
		c-0.25-0.29-0.38-0.68-0.38-1.15c0-0.5,0.19-0.89,0.56-1.18c0.37-0.29,0.86-0.44,1.48-0.44c0.64,0,1.23,0.12,1.76,0.35l-0.23,0.65
		c-0.53-0.22-1.05-0.33-1.55-0.33c-0.4,0-0.7,0.09-0.93,0.25c-0.22,0.17-0.33,0.41-0.33,0.71c0,0.22,0.04,0.41,0.12,0.55
		c0.08,0.14,0.22,0.27,0.41,0.39c0.2,0.12,0.5,0.25,0.9,0.39c0.67,0.24,1.14,0.5,1.39,0.77C73.63,51,73.76,51.36,73.76,51.8z
		 M81.51,53.51h-0.88l-2.34-3.12l-0.67,0.6v2.52h-0.75v-6.42h0.75v3.19l2.91-3.19h0.88l-2.58,2.79L81.51,53.51z M88.24,53.51
		l-0.8-2.04h-2.58l-0.79,2.04h-0.76l2.54-6.45h0.63l2.53,6.45H88.24z M87.2,50.79l-0.75-1.99c-0.1-0.25-0.2-0.56-0.3-0.93
		c-0.06,0.28-0.16,0.59-0.28,0.93l-0.76,1.99H87.2z M93.67,53.51h-0.75v-5.76h-2.03v-0.66h4.82v0.66h-2.03V53.51z M102.06,53.51
		h-3.58v-6.42h3.58v0.66h-2.83v2.07h2.66v0.66h-2.66v2.36h2.83V53.51z M105.29,47.08h1.82c0.85,0,1.47,0.13,1.85,0.38
		c0.38,0.25,0.57,0.66,0.57,1.21c0,0.38-0.11,0.7-0.32,0.94c-0.21,0.25-0.52,0.41-0.93,0.48v0.04c0.97,0.17,1.46,0.68,1.46,1.54
		c0,0.57-0.19,1.02-0.58,1.34c-0.39,0.32-0.93,0.48-1.63,0.48h-2.24V47.08z M106.03,49.83h1.23c0.53,0,0.91-0.08,1.14-0.25
		c0.23-0.17,0.35-0.45,0.35-0.84c0-0.36-0.13-0.62-0.39-0.78c-0.26-0.16-0.67-0.24-1.23-0.24h-1.1V49.83z M106.03,50.47v2.4h1.34
		c0.52,0,0.91-0.1,1.17-0.3c0.26-0.2,0.39-0.52,0.39-0.94c0-0.4-0.13-0.69-0.4-0.88c-0.27-0.19-0.67-0.28-1.22-0.28H106.03z
		 M118.5,50.29c0,1.03-0.26,1.84-0.78,2.43c-0.52,0.59-1.24,0.88-2.17,0.88c-0.95,0-1.68-0.29-2.19-0.87
		c-0.51-0.58-0.77-1.4-0.77-2.45c0-1.05,0.26-1.86,0.77-2.43c0.51-0.58,1.25-0.87,2.2-0.87c0.92,0,1.64,0.29,2.16,0.88
		C118.24,48.45,118.5,49.25,118.5,50.29z M113.38,50.29c0,0.87,0.18,1.53,0.55,1.98c0.37,0.45,0.91,0.67,1.62,0.67
		c0.71,0,1.25-0.22,1.61-0.67c0.36-0.45,0.54-1.11,0.54-1.98c0-0.86-0.18-1.52-0.54-1.96c-0.36-0.45-0.9-0.67-1.6-0.67
		c-0.71,0-1.25,0.23-1.63,0.68C113.56,48.77,113.38,49.43,113.38,50.29z M125.77,53.51l-0.8-2.04h-2.58l-0.79,2.04h-0.76l2.54-6.45
		h0.63l2.53,6.45H125.77z M124.74,50.79L124,48.8c-0.1-0.25-0.2-0.56-0.3-0.93c-0.07,0.28-0.16,0.59-0.28,0.93l-0.76,1.99H124.74z
		 M129.98,50.84v2.67h-0.75v-6.42h1.76c0.79,0,1.37,0.15,1.74,0.45c0.38,0.3,0.57,0.76,0.57,1.36c0,0.85-0.43,1.42-1.29,1.72
		l1.74,2.89h-0.88l-1.55-2.67H129.98z M129.98,50.19H131c0.53,0,0.91-0.1,1.16-0.31c0.25-0.21,0.37-0.53,0.37-0.94
		c0-0.42-0.13-0.73-0.38-0.92c-0.25-0.19-0.65-0.28-1.2-0.28h-0.97V50.19z M141.72,50.23c0,1.06-0.29,1.87-0.87,2.43
		c-0.57,0.56-1.4,0.84-2.48,0.84h-1.78v-6.42h1.97c1,0,1.78,0.28,2.33,0.83C141.45,48.47,141.72,49.24,141.72,50.23z M140.93,50.26
		c0-0.84-0.21-1.47-0.63-1.89c-0.42-0.42-1.04-0.64-1.87-0.64h-1.09v5.13h0.91c0.89,0,1.56-0.22,2.01-0.65
		C140.71,51.77,140.93,51.12,140.93,50.26z M148.59,51.8c0,0.57-0.21,1.01-0.62,1.32c-0.41,0.32-0.97,0.47-1.67,0.47
		c-0.76,0-1.35-0.1-1.76-0.29v-0.72c0.26,0.11,0.55,0.2,0.86,0.26c0.31,0.06,0.62,0.1,0.92,0.1c0.5,0,0.87-0.09,1.12-0.28
		c0.25-0.19,0.38-0.45,0.38-0.79c0-0.22-0.05-0.4-0.14-0.54c-0.09-0.14-0.24-0.28-0.45-0.4c-0.21-0.12-0.53-0.26-0.95-0.41
		c-0.6-0.21-1.03-0.47-1.28-0.76c-0.25-0.29-0.38-0.68-0.38-1.15c0-0.5,0.19-0.89,0.56-1.18c0.37-0.29,0.86-0.44,1.48-0.44
		c0.64,0,1.23,0.12,1.76,0.35l-0.23,0.65c-0.53-0.22-1.05-0.33-1.55-0.33c-0.4,0-0.7,0.09-0.93,0.25c-0.22,0.17-0.33,0.41-0.33,0.71
		c0,0.22,0.04,0.41,0.12,0.55c0.08,0.14,0.22,0.27,0.41,0.39c0.2,0.12,0.49,0.25,0.9,0.39c0.67,0.24,1.14,0.5,1.39,0.77
		C148.46,51,148.59,51.36,148.59,51.8z"/>
</g>
</svg>
